<svg xmlns="http://www.w3.org/2000/svg" xmlns:xlink="http://www.w3.org/1999/xlink" version="1.0" x="0" y="0" width="2400" height="669.5619318073274" viewBox="77.65060760498046 99.23598815917968 184.69878479003907 51.52803131103516" preserveAspectRatio="xMidYMid meet" color-interpolation-filters="sRGB"><g><defs><linearGradient id="92" x1="0%" y1="0%" x2="100%" y2="0%"><stop offset="0%" stop-color="#fa71cd"></stop> <stop offset="100%" stop-color="#9b59b6"></stop></linearGradient><linearGradient id="93" x1="0%" y1="0%" x2="100%" y2="0%"><stop offset="0%" stop-color="#f9d423"></stop> <stop offset="100%" stop-color="#f83600"></stop></linearGradient><linearGradient id="94" x1="0%" y1="0%" x2="100%" y2="0%"><stop offset="0%" stop-color="#0064d2"></stop> <stop offset="100%" stop-color="#1cb0f6"></stop></linearGradient><linearGradient id="95" x1="0%" y1="0%" x2="100%" y2="0%"><stop offset="0%" stop-color="#f00978"></stop> <stop offset="100%" stop-color="#3f51b1"></stop></linearGradient><linearGradient id="96" x1="0%" y1="0%" x2="100%" y2="0%"><stop offset="0%" stop-color="#7873f5"></stop> <stop offset="100%" stop-color="#ec77ab"></stop></linearGradient><linearGradient id="97" x1="0%" y1="0%" x2="100%" y2="0%"><stop offset="0%" stop-color="#f9d423"></stop> <stop offset="100%" stop-color="#e14fad"></stop></linearGradient><linearGradient id="98" x1="0%" y1="0%" x2="100%" y2="0%"><stop offset="0%" stop-color="#009efd"></stop> <stop offset="100%" stop-color="#2af598"></stop></linearGradient><linearGradient id="99" x1="0%" y1="0%" x2="100%" y2="0%"><stop offset="0%" stop-color="#ffcc00"></stop> <stop offset="100%" stop-color="#00b140"></stop></linearGradient><linearGradient id="100" x1="0%" y1="0%" x2="100%" y2="0%"><stop offset="0%" stop-color="#d51007"></stop> <stop offset="100%" stop-color="#ff8177"></stop></linearGradient><linearGradient id="102" x1="0%" y1="0%" x2="100%" y2="0%"><stop offset="0%" stop-color="#a2b6df"></stop> <stop offset="100%" stop-color="#0c3483"></stop></linearGradient><linearGradient id="103" x1="0%" y1="0%" x2="100%" y2="0%"><stop offset="0%" stop-color="#7ac5d8"></stop> <stop offset="100%" stop-color="#eea2a2"></stop></linearGradient><linearGradient id="104" x1="0%" y1="0%" x2="100%" y2="0%"><stop offset="0%" stop-color="#00ecbc"></stop> <stop offset="100%" stop-color="#007adf"></stop></linearGradient><linearGradient id="105" x1="0%" y1="0%" x2="100%" y2="0%"><stop offset="0%" stop-color="#b88746"></stop> <stop offset="100%" stop-color="#fdf5a6"></stop></linearGradient></defs><g fill="#333333" class="icon-text-wrapper icon-svg-group iconsvg" transform="translate(79.46138000488281,101.04675674438477)"><g class="iconsvg-imagesvg" transform="translate(0,0)"><g><rect fill="#333333" fill-opacity="0" stroke-width="2" x="0" y="0" width="60" height="47.906486538277285" class="image-rect"></rect> <svg filter="url(#colors1586399241)" x="0" y="0" width="60" height="47.906486538277285" filtersec="colorsf1346320978" class="image-svg-svg primary" style="overflow: visible;"><svg xmlns="http://www.w3.org/2000/svg" xmlns:xlink="http://www.w3.org/1999/xlink" version="1.1" x="0px" y="0px" viewBox="5 14.099998474121094 89.80000305175781 71.70000457763672" enable-background="new 0 0 100 100" xml:space="preserve"><path d="M84.8,24.1L84.8,24.1L84.8,24.1l-17.3,10l3,5.2l7-4L72.7,53H25.5c-0.1-1-0.1-2.1-0.1-3s0-2,0.1-3h34.2  l2.2-8H27.8c4.1-9,12.9-14.7,23.1-14.7c5.1,0,9.8,1.4,13.8,4.1l2.7-10.3c-4.9-2.6-10.6-4-16.5-4C35,14.1,21.4,24,16.9,39H7.2L5,47  h10.3c-0.1,1-0.1,2.1-0.1,3s0,2,0.1,3H7.2L5,61h11.9c4.6,15,17.5,24.8,33.4,24.8c5.9,0,11.7-1.4,15.7-3.9V69.7c-4,3.8-9.5,6-15.7,6  C40.1,75.6,31.9,69,27.8,61h42.7h5.4h2.9l6.5-24.1l4.3,7.5l5.2-3L84.8,24.1z"></path></svg></svg> <defs><filter id="colors1586399241"><feColorMatrix type="matrix" values="0 0 0 0 0.19921875  0 0 0 0 0.19921875  0 0 0 0 0.19921875  0 0 0 1 0" class="icon-feColorMatrix "></feColorMatrix></filter> <filter id="colorsf1346320978"><feColorMatrix type="matrix" values="0 0 0 0 0.99609375  0 0 0 0 0.99609375  0 0 0 0 0.99609375  0 0 0 1 0" class="icon-fecolormatrix"></feColorMatrix></filter> <filter id="colorsb107629337"><feColorMatrix type="matrix" values="0 0 0 0 0  0 0 0 0 0  0 0 0 0 0  0 0 0 1 0" class="icon-fecolormatrix"></feColorMatrix></filter></defs></g></g> <g transform="translate(67,6.27044677734375)"><g fill-rule="" class="tp-name iconsvg-namesvg" transform="translate(0,0)"><g transform="scale(1)"><g><path d="M2.95-9.39L2.95-1.74 6.43-1.74 6.43 0 0.77 0 0.77-9.39 2.95-9.39ZM12.57-9.39L16.2 0 14.51 0Q14.23 0 14.05-0.13 13.86-0.26 13.79-0.47L13.79-0.47 13.24-2.11 9.67-2.11 9.11-0.47Q9.05-0.29 8.86-0.15 8.67 0 8.4 0L8.4 0 6.7 0 10.34-9.39 12.57-9.39ZM11.03-6.15L10.17-3.59 12.74-3.59 11.87-6.16Q11.79-6.41 11.67-6.74 11.56-7.07 11.45-7.46L11.45-7.46Q11.35-7.06 11.24-6.73 11.13-6.39 11.03-6.15L11.03-6.15ZM20.55-1.72L20.55-1.72Q20.98-1.72 21.33-1.87 21.67-2.01 21.91-2.28 22.15-2.55 22.28-2.94 22.4-3.33 22.4-3.83L22.4-3.83 22.4-9.39 24.58-9.39 24.58-3.83Q24.58-2.96 24.3-2.24 24.02-1.52 23.5-1 22.98-0.48 22.23-0.19 21.48 0.1 20.55 0.1L20.55 0.1Q19.61 0.1 18.86-0.19 18.11-0.48 17.59-1 17.07-1.52 16.79-2.24 16.51-2.96 16.51-3.83L16.51-3.83 16.51-9.39 18.69-9.39 18.69-3.83Q18.69-3.34 18.82-2.95 18.94-2.56 19.18-2.28 19.42-2.01 19.76-1.87 20.11-1.72 20.55-1.72ZM28.73-3.47L28.18-3.47 28.18 0 26 0 26-9.39 29.05-9.39Q30.07-9.39 30.79-9.18 31.51-8.97 31.96-8.6 32.42-8.22 32.62-7.71 32.83-7.21 32.83-6.61L32.83-6.61Q32.83-6.15 32.71-5.74 32.59-5.34 32.34-4.99 32.1-4.65 31.75-4.38 31.4-4.11 30.94-3.93L30.94-3.93Q31.16-3.82 31.35-3.66 31.54-3.5 31.68-3.27L31.68-3.27 33.68 0 31.71 0Q31.16 0 30.92-0.41L30.92-0.41 29.36-3.14Q29.26-3.32 29.12-3.4 28.98-3.47 28.73-3.47L28.73-3.47ZM28.18-7.76L28.18-4.98 29.05-4.98Q29.5-4.98 29.81-5.09 30.12-5.2 30.32-5.4 30.52-5.6 30.61-5.87 30.7-6.14 30.7-6.44L30.7-6.44Q30.7-7.06 30.3-7.41 29.9-7.76 29.05-7.76L29.05-7.76 28.18-7.76ZM34.57-9.39L40.62-9.39 40.62-7.71 36.76-7.71 36.76-5.52 39.71-5.52 39.71-3.91 36.76-3.91 36.76-1.68 40.62-1.68 40.62 0 34.57 0 34.57-9.39ZM43-9.39L43-9.39Q43.14-9.39 43.24-9.38 43.34-9.36 43.41-9.33 43.49-9.29 43.56-9.23 43.63-9.16 43.72-9.06L43.72-9.06 48.18-3.42Q48.16-3.69 48.14-3.94 48.13-4.2 48.13-4.42L48.13-4.42 48.13-9.39 50.05-9.39 50.05 0 48.92 0Q48.67 0 48.49-0.08 48.32-0.15 48.16-0.36L48.16-0.36 43.73-5.96Q43.75-5.71 43.76-5.47 43.77-5.24 43.77-5.03L43.77-5.03 43.77 0 41.85 0 41.85-9.39 43-9.39ZM50.95-9.39L58.42-9.39 58.42-7.66 55.77-7.66 55.77 0 53.6 0 53.6-7.66 50.95-7.66 50.95-9.39ZM67.58-8.49L67.04-7.48Q66.94-7.33 66.84-7.25 66.73-7.17 66.56-7.17L66.56-7.17Q66.41-7.17 66.24-7.27 66.07-7.36 65.86-7.48 65.64-7.59 65.36-7.69 65.09-7.78 64.73-7.78L64.73-7.78Q64.12-7.78 63.82-7.52 63.52-7.26 63.52-6.81L63.52-6.81Q63.52-6.53 63.7-6.34 63.88-6.15 64.18-6.02 64.47-5.88 64.85-5.77 65.22-5.66 65.62-5.52 66.01-5.38 66.39-5.19 66.76-5.01 67.06-4.72 67.35-4.43 67.53-4.01 67.71-3.6 67.71-3.01L67.71-3.01Q67.71-2.36 67.48-1.79 67.26-1.22 66.83-0.8 66.4-0.38 65.77-0.14 65.15 0.1 64.35 0.1L64.35 0.1Q63.91 0.1 63.45 0.01 63-0.08 62.57-0.24 62.15-0.41 61.77-0.63 61.4-0.86 61.12-1.13L61.12-1.13 61.77-2.15Q61.84-2.27 61.97-2.34 62.1-2.41 62.25-2.41L62.25-2.41Q62.44-2.41 62.64-2.29 62.83-2.17 63.08-2.02 63.33-1.87 63.65-1.75 63.97-1.62 64.41-1.62L64.41-1.62Q65-1.62 65.33-1.89 65.66-2.15 65.66-2.71L65.66-2.71Q65.66-3.04 65.48-3.25 65.3-3.45 65.01-3.59 64.71-3.73 64.34-3.83 63.97-3.93 63.57-4.06 63.18-4.18 62.81-4.37 62.43-4.55 62.14-4.85 61.85-5.15 61.67-5.6 61.48-6.05 61.48-6.7L61.48-6.7Q61.48-7.23 61.7-7.73 61.91-8.24 62.32-8.63 62.73-9.02 63.33-9.26 63.93-9.49 64.71-9.49L64.71-9.49Q65.14-9.49 65.55-9.43 65.96-9.36 66.32-9.23 66.69-9.09 67.01-8.91 67.33-8.73 67.58-8.49L67.58-8.49ZM68.79-9.39L74.84-9.39 74.84-7.71 70.98-7.71 70.98-5.52 73.94-5.52 73.94-3.91 70.98-3.91 70.98-1.68 74.84-1.68 74.84 0 68.79 0 68.79-9.39ZM78.81-3.47L78.25-3.47 78.25 0 76.08 0 76.08-9.39 79.13-9.39Q80.15-9.39 80.87-9.18 81.59-8.97 82.04-8.6 82.5-8.22 82.7-7.71 82.91-7.21 82.91-6.61L82.91-6.61Q82.91-6.15 82.79-5.74 82.66-5.34 82.42-4.99 82.18-4.65 81.83-4.38 81.48-4.11 81.02-3.93L81.02-3.93Q81.24-3.82 81.43-3.66 81.62-3.5 81.76-3.27L81.76-3.27 83.76 0 81.79 0Q81.24 0 81-0.41L81-0.41 79.44-3.14Q79.34-3.32 79.2-3.4 79.06-3.47 78.81-3.47L78.81-3.47ZM78.25-7.76L78.25-4.98 79.13-4.98Q79.58-4.98 79.89-5.09 80.2-5.2 80.4-5.4 80.6-5.6 80.69-5.87 80.78-6.14 80.78-6.44L80.78-6.44Q80.78-7.06 80.38-7.41 79.98-7.76 79.13-7.76L79.13-7.76 78.25-7.76ZM87.38-3.47L86.83-3.47 86.83 0 84.65 0 84.65-9.39 87.7-9.39Q88.72-9.39 89.44-9.18 90.16-8.97 90.61-8.6 91.07-8.22 91.27-7.71 91.48-7.21 91.48-6.61L91.48-6.61Q91.48-6.15 91.36-5.74 91.23-5.34 90.99-4.99 90.75-4.65 90.4-4.38 90.05-4.11 89.59-3.93L89.59-3.93Q89.81-3.82 90-3.66 90.19-3.5 90.33-3.27L90.33-3.27 92.33 0 90.36 0Q89.81 0 89.57-0.41L89.57-0.41 88.01-3.14Q87.91-3.32 87.77-3.4 87.63-3.47 87.38-3.47L87.38-3.47ZM86.83-7.76L86.83-4.98 87.7-4.98Q88.15-4.98 88.46-5.09 88.77-5.2 88.97-5.4 89.17-5.6 89.26-5.87 89.35-6.14 89.35-6.44L89.35-6.44Q89.35-7.06 88.95-7.41 88.55-7.76 87.7-7.76L87.7-7.76 86.83-7.76ZM93.22-9.39L99.26-9.39 99.26-7.71 95.41-7.71 95.41-5.52 98.36-5.52 98.36-3.91 95.41-3.91 95.41-1.68 99.26-1.68 99.26 0 93.22 0 93.22-9.39Z" transform="translate(-0.7699999809265137, 9.489999771118164)"></path></g> <g fill="#1684ac" transform="translate(0,12.59000015258789)"><g transform="scale(0.99575)"><path d="M8.37-4.23L8.37-4.23Q8.37-3.32 8.06-2.54 7.74-1.77 7.16-1.2 6.59-0.63 5.78-0.32 4.97 0 3.98 0L3.98 0 0.7 0 0.7-8.46 3.98-8.46Q4.97-8.46 5.78-8.14 6.59-7.82 7.16-7.26 7.74-6.69 8.06-5.92 8.37-5.14 8.37-4.23ZM6.36-4.23L6.36-4.23Q6.36-4.86 6.2-5.37 6.04-5.87 5.73-6.22 5.43-6.57 4.99-6.76 4.55-6.95 3.98-6.95L3.98-6.95 2.67-6.95 2.67-1.51 3.98-1.51Q4.55-1.51 4.99-1.7 5.43-1.89 5.73-2.24 6.04-2.59 6.2-3.09 6.36-3.6 6.36-4.23ZM9.31-8.46L14.76-8.46 14.76-6.95 11.29-6.95 11.29-4.98 13.95-4.98 13.95-3.52 11.29-3.52 11.29-1.51 14.76-1.51 14.76 0 9.31 0 9.31-8.46ZM12.61-10.44L14.6-10.44 12.88-9.2Q12.73-9.08 12.6-9.04 12.47-9.01 12.27-9.01L12.27-9.01 10.85-9.01 11.9-10.15Q11.97-10.24 12.05-10.29 12.12-10.35 12.2-10.38 12.28-10.42 12.38-10.43 12.48-10.44 12.61-10.44L12.61-10.44ZM18.57 0L15.18-8.46 16.76-8.46Q17.01-8.46 17.18-8.34 17.34-8.23 17.41-8.04L17.41-8.04 19.04-3.51Q19.15-3.21 19.27-2.86 19.38-2.51 19.48-2.13L19.48-2.13Q19.56-2.51 19.67-2.86 19.78-3.21 19.88-3.51L19.88-3.51 21.51-8.04Q21.56-8.2 21.73-8.33 21.9-8.46 22.15-8.46L22.15-8.46 23.74-8.46 20.35 0 18.57 0ZM24.43-8.46L29.88-8.46 29.88-6.95 26.41-6.95 26.41-4.98 29.07-4.98 29.07-3.52 26.41-3.52 26.41-1.51 29.88-1.51 29.88 0 24.43 0 24.43-8.46ZM32.96-8.46L32.96-1.57 36.09-1.57 36.09 0 30.99 0 30.99-8.46 32.96-8.46ZM44.91-4.23L44.91-4.23Q44.91-3.32 44.59-2.53 44.27-1.74 43.7-1.15 43.12-0.57 42.31-0.24 41.5 0.09 40.52 0.09L40.52 0.09Q39.53 0.09 38.72-0.24 37.9-0.57 37.33-1.15 36.75-1.74 36.43-2.53 36.12-3.32 36.12-4.23L36.12-4.23Q36.12-5.15 36.43-5.94 36.75-6.73 37.33-7.31 37.9-7.89 38.72-8.22 39.53-8.55 40.52-8.55L40.52-8.55Q41.5-8.55 42.31-8.22 43.12-7.88 43.7-7.3 44.27-6.72 44.59-5.93 44.91-5.14 44.91-4.23ZM42.9-4.23L42.9-4.23Q42.9-4.86 42.73-5.36 42.57-5.86 42.27-6.21 41.96-6.56 41.52-6.75 41.08-6.93 40.52-6.93L40.52-6.93Q39.95-6.93 39.5-6.75 39.06-6.56 38.75-6.21 38.45-5.86 38.29-5.36 38.12-4.86 38.12-4.23L38.12-4.23Q38.12-3.6 38.29-3.1 38.45-2.6 38.75-2.25 39.06-1.9 39.5-1.72 39.95-1.53 40.52-1.53L40.52-1.53Q41.08-1.53 41.52-1.72 41.96-1.9 42.27-2.25 42.57-2.6 42.73-3.1 42.9-3.6 42.9-4.23ZM48.83-2.83L47.81-2.83 47.81 0 45.85 0 45.85-8.46 48.83-8.46Q49.73-8.46 50.37-8.25 51.01-8.04 51.42-7.66 51.84-7.29 52.04-6.79 52.23-6.28 52.23-5.7L52.23-5.7Q52.23-5.06 52.03-4.53 51.83-4.01 51.41-3.63 50.99-3.25 50.35-3.04 49.71-2.83 48.83-2.83L48.83-2.83ZM47.81-6.99L47.81-4.31 48.83-4.31Q49.6-4.31 49.93-4.67 50.27-5.04 50.27-5.7L50.27-5.7Q50.27-5.99 50.18-6.22 50.1-6.46 49.92-6.63 49.74-6.8 49.47-6.9 49.2-6.99 48.83-6.99L48.83-6.99 47.81-6.99ZM56.24-2.83L55.22-2.83 55.22 0 53.26 0 53.26-8.46 56.24-8.46Q57.13-8.46 57.78-8.25 58.42-8.04 58.83-7.66 59.25-7.29 59.44-6.79 59.64-6.28 59.64-5.7L59.64-5.7Q59.64-5.06 59.44-4.53 59.24-4.01 58.82-3.63 58.4-3.25 57.76-3.04 57.12-2.83 56.24-2.83L56.24-2.83ZM55.22-6.99L55.22-4.31 56.24-4.31Q57.01-4.31 57.34-4.67 57.68-5.04 57.68-5.7L57.68-5.7Q57.68-5.99 57.59-6.22 57.51-6.46 57.33-6.63 57.15-6.8 56.88-6.9 56.61-6.99 56.24-6.99L56.24-6.99 55.22-6.99ZM60.66-8.46L66.11-8.46 66.11-6.95 62.64-6.95 62.64-4.98 65.3-4.98 65.3-3.52 62.64-3.52 62.64-1.51 66.11-1.51 66.11 0 60.66 0 60.66-8.46ZM71.55-3.87L71.55-3.87Q71.67-3.65 71.77-3.41 71.88-3.17 71.98-2.92L71.98-2.92Q72.08-3.18 72.19-3.42 72.3-3.66 72.42-3.88L72.42-3.88 74.59-8.16Q74.65-8.27 74.71-8.33 74.77-8.39 74.84-8.42 74.92-8.45 75.01-8.45 75.11-8.46 75.24-8.46L75.24-8.46 76.74-8.46 76.74 0 75.01 0 75.01-4.87Q75.01-5.22 75.04-5.63L75.04-5.63 72.8-1.28Q72.69-1.08 72.52-0.98 72.34-0.87 72.11-0.87L72.11-0.87 71.85-0.87Q71.62-0.87 71.44-0.98 71.27-1.08 71.16-1.28L71.16-1.28 68.91-5.64Q68.93-5.43 68.94-5.23 68.96-5.03 68.96-4.87L68.96-4.87 68.96 0 67.23 0 67.23-8.46 68.72-8.46Q68.85-8.46 68.95-8.45 69.04-8.45 69.12-8.42 69.19-8.39 69.25-8.33 69.32-8.27 69.37-8.16L69.37-8.16 71.55-3.87ZM78.13-8.46L83.58-8.46 83.58-6.95 80.1-6.95 80.1-4.98 82.76-4.98 82.76-3.52 80.1-3.52 80.1-1.51 83.58-1.51 83.58 0 78.13 0 78.13-8.46ZM85.72-8.46L85.72-8.46Q85.85-8.46 85.94-8.45 86.03-8.44 86.1-8.4 86.17-8.37 86.23-8.31 86.29-8.26 86.37-8.16L86.37-8.16 90.39-3.08Q90.37-3.32 90.36-3.55 90.35-3.78 90.35-3.98L90.35-3.98 90.35-8.46 92.08-8.46 92.08 0 91.05 0Q90.83 0 90.67-0.07 90.51-0.14 90.37-0.33L90.37-0.33 86.38-5.37Q86.4-5.14 86.41-4.93 86.42-4.72 86.42-4.53L86.42-4.53 86.42 0 84.69 0 84.69-8.46 85.72-8.46ZM92.89-8.46L99.61-8.46 99.61-6.9 97.23-6.9 97.23 0 95.27 0 95.27-6.9 92.89-6.9 92.89-8.46Z" transform="translate(-0.699999988079071, 10.4399995803833)"></path></g></g></g></g> <g fill-rule="" class="tp-slogan iconsvg-slogansvg" fill="#1684ac" transform="translate(-15.584999084472656,29.07524871826172)"> <g transform="scale(1, 1)"><g transform="scale(1)"><path d="M3.41-2.47L1.59-2.47L1.88-3.40C1.99-3.73 2.09-4.07 2.19-4.41C2.29-4.74 2.39-5.09 2.48-5.44L2.52-5.44C2.62-5.09 2.71-4.74 2.81-4.41C2.91-4.07 3.02-3.73 3.13-3.40ZM3.61-1.85L4.18 0L5.01 0L2.95-6.07L2.08-6.07L0.03 0L0.81 0L1.40-1.85ZM5.70-6.07L5.70-2.51C5.70-2.02 5.75-1.61 5.87-1.28C5.98-0.94 6.13-0.67 6.32-0.47C6.52-0.26 6.75-0.11 7.02-0.02C7.29 0.07 7.57 0.11 7.88 0.11C8.19 0.11 8.48 0.07 8.74-0.02C9.01-0.11 9.24-0.26 9.43-0.47C9.63-0.67 9.78-0.94 9.89-1.28C10.00-1.61 10.06-2.02 10.06-2.51L10.06-6.07L9.32-6.07L9.32-2.49C9.32-2.12 9.28-1.82 9.21-1.57C9.13-1.33 9.03-1.13 8.90-0.98C8.77-0.83 8.62-0.73 8.45-0.66C8.27-0.60 8.09-0.56 7.88-0.56C7.69-0.56 7.50-0.60 7.33-0.66C7.15-0.73 7.01-0.83 6.88-0.98C6.75-1.13 6.65-1.33 6.58-1.57C6.50-1.82 6.47-2.12 6.47-2.49L6.47-6.07ZM11.34-3.03C11.34-2.54 11.41-2.10 11.55-1.71C11.68-1.32 11.87-0.99 12.11-0.72C12.35-0.45 12.64-0.24 12.97-0.10C13.30 0.04 13.67 0.11 14.07 0.11C14.48 0.11 14.84 0.04 15.17-0.09C15.49-0.22 15.75-0.39 15.95-0.59L15.95-3.15L13.96-3.15L13.96-2.51L15.25-2.51L15.25-0.93C15.12-0.81 14.97-0.73 14.77-0.66C14.58-0.60 14.37-0.56 14.16-0.56C13.83-0.56 13.54-0.62 13.29-0.74C13.04-0.86 12.83-1.02 12.66-1.24C12.49-1.46 12.36-1.72 12.27-2.02C12.18-2.33 12.14-2.67 12.14-3.05C12.14-3.43 12.19-3.77 12.28-4.07C12.38-4.37 12.51-4.63 12.68-4.84C12.86-5.06 13.07-5.22 13.31-5.33C13.56-5.45 13.84-5.50 14.15-5.50C14.45-5.50 14.71-5.45 14.91-5.34C15.11-5.24 15.29-5.10 15.44-4.94L15.88-5.43C15.70-5.62 15.47-5.79 15.19-5.94C14.91-6.10 14.56-6.18 14.14-6.18C13.73-6.18 13.36-6.11 13.02-5.96C12.68-5.82 12.38-5.61 12.13-5.34C11.88-5.07 11.69-4.74 11.55-4.35C11.41-3.96 11.34-3.52 11.34-3.03ZM17.40-6.07L17.40 0L18.12 0L18.12-3.34C18.12-3.61 18.10-3.91 18.08-4.24C18.05-4.56 18.03-4.86 18.01-5.13L18.05-5.13L18.53-3.78L19.71-0.61L20.14-0.61L21.31-3.78L21.80-5.13L21.83-5.13C21.81-4.86 21.79-4.56 21.77-4.24C21.74-3.91 21.73-3.61 21.73-3.34L21.73 0L22.46 0L22.46-6.07L21.56-6.07L20.39-2.81L19.97-1.57L19.93-1.57L19.48-2.81L18.31-6.07ZM24.13-6.07L24.13 0L27.72 0L27.72-0.66L24.90-0.66L24.90-2.86L27.20-2.86L27.20-3.52L24.90-3.52L24.90-5.42L27.63-5.42L27.63-6.07ZM29.01-6.07L29.01 0L29.74 0L29.74-3.17C29.74-3.49 29.73-3.81 29.70-4.13C29.68-4.45 29.66-4.76 29.63-5.07L29.67-5.07L30.33-3.82L32.53 0L33.33 0L33.33-6.07L32.59-6.07L32.59-2.93C32.59-2.61 32.61-2.29 32.63-1.96C32.65-1.63 32.67-1.31 32.69-1.00L32.65-1.00L31.99-2.26L29.80-6.07ZM36.25-5.42L36.25 0L37.03 0L37.03-5.42L38.86-5.42L38.86-6.07L34.42-6.07L34.42-5.42ZM39.95-6.07L39.95 0L43.54 0L43.54-0.66L40.72-0.66L40.72-2.86L43.02-2.86L43.02-3.52L40.72-3.52L40.72-5.42L43.45-5.42L43.45-6.07ZM44.41-0.46L44.41 0L48.59 0L48.59-0.66L45.36-0.66L48.56-5.62L48.56-6.07L44.70-6.07L44.70-5.42L47.60-5.42ZM50.85-6.07L52.79 0L53.69 0L55.61-6.07L54.83-6.07L53.86-2.79C53.75-2.43 53.66-2.09 53.57-1.79C53.48-1.48 53.38-1.14 53.27-0.79L53.24-0.79C53.12-1.14 53.02-1.48 52.94-1.79C52.85-2.09 52.75-2.43 52.64-2.79L51.67-6.07ZM58.59 0.11C58.98 0.11 59.33 0.04 59.64-0.11C59.96-0.26 60.24-0.47 60.47-0.74C60.70-1.02 60.88-1.35 61.00-1.74C61.13-2.14 61.19-2.58 61.19-3.06C61.19-3.54 61.13-3.98 61.00-4.36C60.88-4.75 60.70-5.07 60.47-5.34C60.24-5.61 59.96-5.82 59.64-5.96C59.33-6.11 58.98-6.18 58.59-6.18C58.21-6.18 57.86-6.11 57.54-5.97C57.23-5.83 56.95-5.62 56.72-5.35C56.50-5.08 56.32-4.76 56.19-4.37C56.07-3.99 56.00-3.55 56.00-3.06C56.00-2.58 56.07-2.14 56.19-1.74C56.32-1.35 56.50-1.02 56.72-0.74C56.95-0.47 57.23-0.26 57.54-0.11C57.86 0.04 58.21 0.11 58.59 0.11ZM58.59-0.56C58.32-0.56 58.08-0.62 57.86-0.74C57.64-0.86 57.45-1.03 57.29-1.24C57.14-1.46 57.01-1.73 56.93-2.03C56.84-2.34 56.80-2.68 56.80-3.06C56.80-3.44 56.84-3.78 56.93-4.08C57.01-4.38 57.14-4.64 57.29-4.85C57.45-5.06 57.64-5.22 57.86-5.33C58.08-5.45 58.32-5.50 58.59-5.50C58.86-5.50 59.11-5.45 59.33-5.33C59.55-5.22 59.74-5.06 59.89-4.85C60.05-4.64 60.17-4.38 60.26-4.08C60.34-3.78 60.39-3.44 60.39-3.06C60.39-2.68 60.34-2.34 60.26-2.03C60.17-1.73 60.05-1.46 59.89-1.24C59.74-1.03 59.55-0.86 59.33-0.74C59.11-0.62 58.86-0.56 58.59-0.56ZM62.52-1.32L62.05-0.79C62.32-0.51 62.63-0.29 63.00-0.13C63.36 0.03 63.76 0.11 64.18 0.11C64.50 0.11 64.79 0.07 65.04-0.02C65.29-0.11 65.51-0.24 65.69-0.39C65.87-0.55 66.01-0.73 66.10-0.94C66.20-1.15 66.24-1.38 66.24-1.62C66.24-1.84 66.21-2.04 66.15-2.21C66.08-2.38 65.99-2.52 65.88-2.65C65.77-2.78 65.64-2.89 65.49-2.98C65.33-3.08 65.17-3.16 65.00-3.24L64.13-3.61C64.01-3.66 63.89-3.71 63.77-3.77C63.66-3.83 63.55-3.90 63.45-3.97C63.35-4.05 63.27-4.14 63.21-4.24C63.16-4.34 63.13-4.47 63.13-4.62C63.13-4.89 63.23-5.11 63.44-5.27C63.64-5.43 63.92-5.50 64.26-5.50C64.54-5.50 64.79-5.45 65.02-5.35C65.24-5.25 65.45-5.11 65.63-4.93L66.05-5.43C65.83-5.65 65.57-5.83 65.26-5.97C64.96-6.11 64.62-6.18 64.26-6.18C63.98-6.18 63.72-6.14 63.49-6.06C63.26-5.98 63.06-5.87 62.89-5.72C62.72-5.58 62.59-5.41 62.49-5.21C62.40-5.01 62.35-4.80 62.35-4.57C62.35-4.35 62.39-4.15 62.46-3.98C62.53-3.81 62.63-3.67 62.75-3.54C62.86-3.42 63.00-3.32 63.14-3.23C63.29-3.14 63.44-3.07 63.58-3.01L64.45-2.63C64.59-2.56 64.72-2.49 64.85-2.43C64.97-2.37 65.08-2.30 65.17-2.23C65.26-2.15 65.33-2.06 65.38-1.95C65.43-1.84 65.46-1.71 65.46-1.55C65.46-1.26 65.35-1.02 65.12-0.84C64.90-0.66 64.59-0.56 64.19-0.56C63.88-0.56 63.57-0.63 63.28-0.77C62.99-0.91 62.73-1.09 62.52-1.32ZM68.47-6.07L70.42 0L71.31 0L73.24-6.07L72.45-6.07L71.48-2.79C71.38-2.43 71.28-2.09 71.19-1.79C71.11-1.48 71.01-1.14 70.90-0.79L70.86-0.79C70.74-1.14 70.64-1.48 70.56-1.79C70.48-2.09 70.38-2.43 70.27-2.79L69.30-6.07ZM74.07-6.07L74.07 0L77.66 0L77.66-0.66L74.84-0.66L74.84-2.86L77.14-2.86L77.14-3.52L74.84-3.52L74.84-5.42L77.57-5.42L77.57-6.07ZM78.95-6.07L78.95 0L79.68 0L79.68-3.17C79.68-3.49 79.67-3.81 79.65-4.13C79.62-4.45 79.60-4.76 79.58-5.07L79.61-5.07L80.27-3.82L82.47 0L83.27 0L83.27-6.07L82.54-6.07L82.54-2.93C82.54-2.61 82.55-2.29 82.57-1.96C82.59-1.63 82.61-1.31 82.63-1.00L82.59-1.00L81.94-2.26L79.74-6.07ZM86.19-5.42L86.19 0L86.97 0L86.97-5.42L88.80-5.42L88.80-6.07L84.36-6.07L84.36-5.42ZM89.89-6.07L89.89 0L93.48 0L93.48-0.66L90.66-0.66L90.66-2.86L92.96-2.86L92.96-3.52L90.66-3.52L90.66-5.42L93.39-5.42L93.39-6.07ZM94.79-1.32L94.32-0.79C94.59-0.51 94.90-0.29 95.27-0.13C95.63 0.03 96.03 0.11 96.45 0.11C96.77 0.11 97.06 0.07 97.31-0.02C97.57-0.11 97.78-0.24 97.96-0.39C98.14-0.55 98.28-0.73 98.37-0.94C98.47-1.15 98.52-1.38 98.52-1.62C98.52-1.84 98.48-2.04 98.42-2.21C98.35-2.38 98.27-2.52 98.15-2.65C98.04-2.78 97.91-2.89 97.76-2.98C97.60-3.08 97.44-3.16 97.27-3.24L96.41-3.61C96.28-3.66 96.16-3.71 96.05-3.77C95.93-3.83 95.82-3.90 95.72-3.97C95.62-4.05 95.54-4.14 95.49-4.24C95.43-4.34 95.40-4.47 95.40-4.62C95.40-4.89 95.50-5.11 95.71-5.27C95.91-5.43 96.19-5.50 96.53-5.50C96.81-5.50 97.06-5.45 97.29-5.35C97.51-5.25 97.72-5.11 97.90-4.93L98.32-5.43C98.11-5.65 97.84-5.83 97.53-5.97C97.23-6.11 96.89-6.18 96.53-6.18C96.25-6.18 95.99-6.14 95.76-6.06C95.53-5.98 95.33-5.87 95.16-5.72C94.99-5.58 94.86-5.41 94.76-5.21C94.67-5.01 94.62-4.80 94.62-4.57C94.62-4.35 94.66-4.15 94.73-3.98C94.81-3.81 94.90-3.67 95.02-3.54C95.14-3.42 95.27-3.32 95.42-3.23C95.56-3.14 95.71-3.07 95.85-3.01L96.72-2.63C96.86-2.56 96.99-2.49 97.12-2.43C97.24-2.37 97.35-2.30 97.44-2.23C97.53-2.15 97.60-2.06 97.65-1.95C97.70-1.84 97.73-1.71 97.73-1.55C97.73-1.26 97.62-1.02 97.40-0.84C97.17-0.66 96.86-0.56 96.46-0.56C96.15-0.56 95.84-0.63 95.55-0.77C95.26-0.91 95.00-1.09 94.79-1.32ZM101.58-6.07L101.58 0L103.13 0C103.59 0 103.99-0.07 104.34-0.21C104.70-0.35 104.99-0.55 105.23-0.81C105.47-1.07 105.65-1.39 105.78-1.77C105.90-2.15 105.96-2.58 105.96-3.06C105.96-4.03 105.72-4.77 105.23-5.29C104.75-5.81 104.03-6.07 103.10-6.07ZM103.04-0.63L102.35-0.63L102.35-5.44L103.04-5.44C103.75-5.44 104.28-5.24 104.64-4.83C104.99-4.42 105.17-3.83 105.17-3.06C105.17-2.29 104.99-1.69 104.64-1.27C104.28-0.84 103.75-0.63 103.04-0.63ZM107.27-6.07L107.27 0L110.86 0L110.86-0.66L108.04-0.66L108.04-2.86L110.34-2.86L110.34-3.52L108.04-3.52L108.04-5.42L110.77-5.42L110.77-6.07ZM113.81-1.22L113.42-0.72C113.52-0.61 113.63-0.51 113.76-0.41C113.88-0.31 114.03-0.22 114.19-0.14C114.35-0.07 114.53-0.00 114.72 0.04C114.91 0.09 115.13 0.11 115.36 0.11C115.63 0.11 115.89 0.07 116.12-0.00C116.36-0.08 116.56-0.19 116.74-0.34C116.91-0.48 117.05-0.66 117.15-0.87C117.26-1.08 117.31-1.31 117.31-1.57C117.31-1.78 117.27-1.96 117.21-2.13C117.14-2.29 117.05-2.44 116.94-2.57C116.82-2.69 116.68-2.80 116.53-2.88C116.37-2.97 116.21-3.03 116.03-3.07L116.03-3.11C116.35-3.23 116.61-3.41 116.81-3.64C117.00-3.86 117.10-4.16 117.10-4.51C117.10-4.76 117.06-4.97 116.97-5.15C116.89-5.34 116.76-5.49 116.61-5.62C116.45-5.75 116.26-5.84 116.05-5.91C115.83-5.98 115.59-6.01 115.34-6.01C114.98-6.01 114.67-5.94 114.40-5.81C114.12-5.67 113.87-5.49 113.64-5.27L114.05-4.79C114.23-4.97 114.42-5.12 114.63-5.23C114.83-5.34 115.06-5.39 115.31-5.39C115.62-5.39 115.87-5.31 116.05-5.14C116.23-4.98 116.33-4.75 116.33-4.46C116.33-4.31 116.30-4.16 116.24-4.02C116.19-3.89 116.09-3.77 115.96-3.67C115.83-3.57 115.65-3.50 115.44-3.44C115.23-3.39 114.97-3.36 114.65-3.36L114.65-2.78C115.00-2.78 115.30-2.75 115.54-2.69C115.78-2.64 115.97-2.56 116.12-2.45C116.27-2.35 116.38-2.22 116.44-2.08C116.51-1.93 116.54-1.77 116.54-1.60C116.54-1.27 116.42-1.00 116.20-0.81C115.97-0.62 115.67-0.52 115.32-0.52C114.97-0.52 114.67-0.59 114.43-0.73C114.20-0.87 113.99-1.04 113.81-1.22ZM120.08 0.11C120.67 0.11 121.14-0.15 121.47-0.68C121.80-1.22 121.97-1.98 121.97-2.97C121.97-3.96 121.80-4.72 121.47-5.24C121.14-5.75 120.67-6.01 120.08-6.01C119.48-6.01 119.02-5.75 118.68-5.24C118.35-4.72 118.19-3.96 118.19-2.97C118.19-1.98 118.35-1.22 118.68-0.68C119.02-0.15 119.48 0.11 120.08 0.11ZM120.08-0.50C119.74-0.50 119.46-0.70 119.24-1.09C119.03-1.48 118.93-2.11 118.93-2.97C118.93-3.40 118.95-3.77 119.01-4.08C119.06-4.39 119.14-4.64 119.24-4.83C119.35-5.03 119.47-5.17 119.61-5.26C119.75-5.36 119.91-5.40 120.08-5.40C120.25-5.40 120.41-5.36 120.55-5.26C120.69-5.17 120.81-5.03 120.91-4.83C121.01-4.64 121.09-4.39 121.15-4.08C121.20-3.77 121.23-3.40 121.23-2.97C121.23-2.54 121.20-2.17 121.15-1.86C121.09-1.54 121.01-1.29 120.91-1.09C120.81-0.89 120.69-0.74 120.55-0.64C120.41-0.55 120.25-0.50 120.08-0.50ZM124.08-2.35C124.49-2.35 124.83-2.52 125.08-2.85C125.33-3.18 125.46-3.66 125.46-4.27C125.46-4.89 125.33-5.36 125.08-5.69C124.83-6.02 124.49-6.18 124.08-6.18C123.66-6.18 123.32-6.02 123.07-5.69C122.83-5.36 122.70-4.89 122.70-4.27C122.70-3.66 122.83-3.18 123.07-2.85C123.32-2.52 123.66-2.35 124.08-2.35ZM124.08-2.82C123.84-2.82 123.64-2.94 123.50-3.19C123.35-3.43 123.27-3.79 123.27-4.27C123.27-4.76 123.35-5.11 123.50-5.35C123.64-5.59 123.84-5.71 124.08-5.71C124.31-5.71 124.50-5.59 124.65-5.35C124.80-5.11 124.87-4.76 124.87-4.27C124.87-3.79 124.80-3.43 124.65-3.19C124.50-2.94 124.31-2.82 124.08-2.82ZM124.25 0.11L124.76 0.11L128.11-6.18L127.59-6.18ZM128.31 0.11C128.72 0.11 129.05-0.06 129.31-0.39C129.56-0.72 129.69-1.20 129.69-1.81C129.69-2.42 129.56-2.89 129.31-3.22C129.05-3.55 128.72-3.72 128.31-3.72C127.89-3.72 127.55-3.55 127.30-3.22C127.05-2.89 126.93-2.42 126.93-1.81C126.93-1.20 127.05-0.72 127.30-0.39C127.55-0.06 127.89 0.11 128.31 0.11ZM128.31-0.36C128.07-0.36 127.87-0.48 127.72-0.73C127.58-0.97 127.50-1.33 127.50-1.81C127.50-2.29 127.58-2.65 127.72-2.89C127.87-3.13 128.07-3.25 128.31-3.25C128.54-3.25 128.73-3.13 128.88-2.89C129.03-2.65 129.10-2.29 129.10-1.81C129.10-1.33 129.03-0.97 128.88-0.73C128.73-0.48 128.54-0.36 128.31-0.36Z" transform="translate(-0.027756031599174433, 6.18034303608284)"></path></g></g></g></g></g><defs v-gra="od"></defs></g></svg>